<svg xmlns="http://www.w3.org/2000/svg" viewBox="0 0 2048 512" preserveAspectRatio="xMidYMid slice">
  <defs>
    <linearGradient id="sky" x1="0" y1="0" x2="0" y2="1">
      <stop offset="0%" stop-color="#24406b"/>
      <stop offset="55%" stop-color="#16304f"/>
      <stop offset="100%" stop-color="#0a1322"/>
    </linearGradient>
    <radialGradient id="sun" cx="0.5" cy="0.5" r="0.5">
      <stop offset="0%" stop-color="#ffd9a0" stop-opacity="0.9"/>
      <stop offset="100%" stop-color="#ffd9a0" stop-opacity="0"/>
    </radialGradient>
  </defs>
  <rect width="2048" height="512" fill="url(#sky)"/>
  <circle cx="1700" cy="130" r="150" fill="url(#sun)"/>
  <circle cx="1700" cy="130" r="52" fill="#ffe2b8" opacity="0.8"/>
  <g fill="#1d3a5c">
    <rect x="40" y="250" width="90" height="262"/>
    <rect x="160" y="300" width="70" height="212"/>
    <rect x="260" y="270" width="110" height="242"/>
    <rect x="420" y="230" width="80" height="282"/>
    <rect x="530" y="310" width="130" height="202"/>
    <rect x="700" y="260" width="90" height="252"/>
    <rect x="820" y="220" width="100" height="292"/>
    <rect x="960" y="290" width="140" height="222"/>
    <rect x="1140" y="250" width="90" height="262"/>
    <rect x="1280" y="300" width="120" height="212"/>
    <rect x="1440" y="240" width="95" height="272"/>
    <rect x="1580" y="290" width="130" height="222"/>
    <rect x="1760" y="260" width="100" height="252"/>
    <rect x="1900" y="310" width="120" height="202"/>
  </g>
  <g fill="#2c527d" opacity="0.85">
    <rect x="70" y="280" width="16" height="10"/>
    <rect x="100" y="280" width="16" height="10"/>
    <rect x="450" y="260" width="16" height="10"/>
    <rect x="480" y="260" width="16" height="10"/>
    <rect x="850" y="250" width="16" height="10"/>
    <rect x="880" y="250" width="16" height="10"/>
    <rect x="1170" y="280" width="16" height="10"/>
    <rect x="1470" y="270" width="16" height="10"/>
  </g>
  <path d="M0 440 Q512 400 1024 436 T2048 428 L2048 512 L0 512 Z" fill="#0c1c2e"/>
  <text x="1024" y="480" text-anchor="middle" fill="#5f88a8" font-size="26" font-family="'Microsoft YaHei',sans-serif" letter-spacing="10">360° 全景示范位 · 左右拖拽环视</text>
</svg>
